<?xml version="1.0" encoding="UTF-8" standalone="no"?>
<!-- Created with Inkscape (http://www.inkscape.org/) -->

<svg
   width="33.866665mm"
   height="33.866665mm"
   viewBox="0 0 33.866665 33.866665"
   version="1.1"
   id="svg5"
   xmlns:xlink="http://www.w3.org/1999/xlink"
   xmlns="http://www.w3.org/2000/svg"
   xmlns:svg="http://www.w3.org/2000/svg">
  <defs
     id="defs2">
    <linearGradient
       id="linearGradient1250">
      <stop
         style="stop-color:#ffaaaa;stop-opacity:1"
         offset="0"
         id="stop1246" />
      <stop
         style="stop-color:#ff5555;stop-opacity:1"
         offset="1"
         id="stop1248" />
    </linearGradient>
    <linearGradient
       xlink:href="#linearGradient1250"
       id="linearGradient1252"
       x1="38.852726"
       y1="75.330194"
       x2="66.666533"
       y2="75.330194"
       gradientUnits="userSpaceOnUse" />
  </defs>
  <g
     id="layer1"
     transform="translate(-35.826298,-58.396862)">
    <rect
       style="fill:url(#linearGradient1252);stroke-width:5.99999;stroke-linejoin:bevel;fill-opacity:1"
       id="rect898"
       width="27.813807"
       height="27.813807"
       x="38.852726"
       y="61.42329"
       ry="5.9760051" />
    <text
       xml:space="preserve"
       style="font-weight:800;font-size:3.175px;font-family:'LINE Seed JP_OTF';-inkscape-font-specification:'LINE Seed JP_OTF Ultra-Bold';fill:#ff8080;stroke-width:6.00001;stroke-linejoin:bevel"
       x="43.349819"
       y="75.330193"
       id="text1110"><tspan
         id="tspan1108"
         style="fill:#ffffff;stroke-width:6"
         x="43.349819"
         y="75.330193" /></text>
    <g
       aria-label="速"
       id="text1114"
       style="font-weight:800;font-size:22.2187px;font-family:'LINE Seed JP_OTF';-inkscape-font-specification:'LINE Seed JP_OTF Ultra-Bold';fill:#ffffff;stroke-width:6.00001;stroke-linejoin:bevel">
      <path
         d="m 53.938885,65.342887 v 0.68878 H 49.05077 c -0.222187,0 -0.355499,0.133312 -0.355499,0.355499 v 2.466276 c 0,0.222187 0.133312,0.355499 0.355499,0.355499 h 4.888115 v 0.777655 H 49.40627 c -0.222187,0 -0.3555,0.133312 -0.3555,0.355499 v 5.510238 c 0,0.222187 0.133313,0.355499 0.3555,0.355499 h 3.332805 c -1.133154,0.910966 -2.510713,1.510871 -3.910492,1.821933 -0.15553,0.04444 -0.244405,0.111094 -0.244405,0.244406 0,0.06666 0.02222,0.133312 0.06666,0.222187 l 1.53309,2.466276 c 0.111094,0.199968 0.266625,0.244405 0.466593,0.155531 1.19981,-0.577687 2.39962,-1.399779 3.332805,-2.332964 l -0.04444,3.066181 c -0.68878,-0.02222 -1.288685,-0.04444 -1.666403,-0.08888 -2.110777,-0.222187 -3.310586,-0.710999 -3.93271,-2.110777 v -6.554516 c 0,-0.222187 -0.133312,-0.3555 -0.355499,-0.3555 H 42.89619 c -0.222187,0 -0.355499,0.133313 -0.355499,0.3555 v 3.021743 c 0,0.222187 0.133312,0.355499 0.355499,0.355499 h 1.599747 v 3.866054 c -0.68878,0.599905 -1.577528,1.222029 -2.332964,1.688621 -0.155531,0.08887 -0.222187,0.199969 -0.222187,0.311062 0,0.06666 0.02222,0.133312 0.06666,0.199968 l 1.910809,2.955088 c 0.08887,0.133312 0.177749,0.177749 0.288843,0.177749 0.399936,0 2.155214,-1.777496 2.488494,-2.155214 1.288685,1.288685 2.999525,1.733059 5.199176,1.910808 0.866529,0.06666 2.355182,0.08888 3.954929,0.08888 2.399619,0 5.065863,-0.06666 6.310111,-0.155531 0.199968,-0.02222 0.311061,-0.111093 0.377718,-0.311061 l 1.02206,-3.199493 c 0.06666,-0.244406 -0.04444,-0.399937 -0.311062,-0.377718 -1.355341,0.133312 -3.510555,0.266624 -5.599113,0.33328 l -0.04444,-2.932868 c 1.110935,1.02206 2.466276,1.844152 3.732742,2.377401 0.199968,0.08888 0.377718,0.02222 0.466592,-0.155531 l 1.399779,-2.644026 c 0.111093,-0.222187 0.04444,-0.399936 -0.222187,-0.444374 -1.555309,-0.288843 -2.955088,-0.933185 -4.154897,-1.799714 h 3.332805 c 0.222187,0 0.355499,-0.133312 0.355499,-0.355499 v -5.510238 c 0,-0.222187 -0.133312,-0.355499 -0.355499,-0.355499 h -4.510397 v -0.777655 h 4.910333 c 0.222187,0 0.355499,-0.133312 0.355499,-0.355499 v -2.466276 c 0,-0.222187 -0.133312,-0.355499 -0.355499,-0.355499 h -4.910333 v -0.68878 c 0,-0.222187 -0.133312,-0.355499 -0.355499,-0.355499 h -2.999524 c -0.222187,0 -0.355499,0.133312 -0.355499,0.355499 z m -5.532457,3.443899 c -0.710998,-1.288685 -1.799715,-2.577369 -2.888431,-3.42168 -0.06666,-0.04444 -0.155531,-0.08888 -0.222187,-0.08888 -0.08888,0 -0.155531,0.04444 -0.244406,0.111094 l -2.510713,1.644183 c -0.111093,0.06666 -0.155531,0.155531 -0.155531,0.244406 0,0.08888 0.02222,0.155531 0.111094,0.244406 1.02206,0.999841 1.977464,2.310745 2.532932,3.554992 0.06666,0.155531 0.177749,0.222187 0.288843,0.222187 0.06666,0 0.133312,-0.02222 0.199968,-0.06666 l 2.777338,-1.955246 c 0.177749,-0.133312 0.222187,-0.288843 0.111093,-0.488811 z m 5.687987,4.976989 H 52.47245 v -1.222029 h 1.621965 z m 3.42168,-1.222029 h 1.577528 v 1.222029 h -1.577528 z"
         style="stroke-width:6"
         id="path1220" />
    </g>
  </g>
</svg>
